PathFileType	4	(X/Y/Z)	pose_F01_0-88.trc
DataRate	CameraRate	NumFrames	NumMarkers	Units	OrigDataRate	OrigDataStartFrame	OrigNumFrames
30	30	8	21	m	30	50	88
Frame#	Time	CHip			RHip			RKnee			RAnkle			RBigToe			RSmallToe			RHeel			LHip			LKnee			LAnkle			LBigToe			LSmallToe			LHeel			Neck			Nose			RShoulder			RElbow			RWrist			LShoulder			LElbow			LWrist			
		X1	Y1	Z1	X2	Y2	Z2	X3	Y3	Z3	X4	Y4	Z4	X5	Y5	Z5	X6	Y6	Z6	X7	Y7	Z7	X8	Y8	Z8	X9	Y9	Z9	X10	Y10	Z10	X11	Y11	Z11	X12	Y12	Z12	X13	Y13	Z13	X14	Y14	Z14	X15	Y15	Z15	X16	Y16	Z16	X17	Y17	Z17	X18	Y18	Z18	X19	Y19	Z19	X20	Y20	Z20	X21	Y21	Z21	
50	1.6666666666666667	-0.230378845985579	1.8884432429197646	-0.4397696322609462	-0.24141039907625483	1.886488139303463	-0.390628013037719	-0.2595590554868672	1.7413389930435803	-0.3461424888986387													-0.21737505512483915	1.8899105068794804	-0.49396493816792586	-0.21000352213872983	1.7462079226619531	-0.4802453113276745	-0.21003881797470597	1.6222528421388722	-0.44974036078458823	-0.20012252497820568	1.5914024653564316	-0.5195258032866303	-0.19587020633913033	1.602402631499044	-0.5255426216275848	-0.21744821550718163	1.6270908390663936	-0.42046463454583927	-0.22714748979651936	2.036166911014024	-0.4308024296066311	-0.23961323651450123	2.1052935115778517	-0.4723165035858683	-0.2414527344289789	2.041941339070128	-0.3650978882420302	-0.27381365292799903	2.0645826027889345	-0.4290934935693225	-0.29982278517977673	2.1084421108622653	-0.5240572751945244	-0.20736928058977985	2.0353616734960136	-0.4941766682312207	-1.634018672062388	1.888384807735079	1.0087560339884278	-1.4051374615963659	1.874068222767885	0.6065573477337517
51	1.7	-0.22921183713018878	1.8882732583194606	-0.44491410289791755	-0.2422558682872097	1.8878461545180834	-0.3941126880953346	-0.2595590554868672	1.7413389930435803	-0.3461424888986387													-0.21428959706242234	1.8908639303551584	-0.4932140024849336	-0.2102541502986572	1.7427235216820773	-0.4796056890350953	-0.21003881797470597	1.6222528421388722	-0.44974036078458823	-0.19802190333854489	1.5909457788958277	-0.5217074568802355	-0.19322474056347533	1.601924839992393	-0.5237825833261368	-0.21744821550718163	1.6270908390663936	-0.42046463454583927	-0.2259686224663459	2.035714745994456	-0.4188493255777062	-0.23976883657958475	2.1034555352802573	-0.46424587820082613	-0.24107778977542088	2.041917877672506	-0.35648948220362037	-0.2664434125737349	2.0746028334878184	-0.43190374527972575	-0.3013752034848429	2.116182662418918	-0.5140249275119063	-0.2103242339186598	2.035215264794044	-0.4865823619087666	-1.6328728684782283	1.8883810430412984	1.0077317973445226	-1.3975845587613882	1.8633022522086136	0.6025844973616217
52	1.7333333333333334	-0.23058795721545985	1.8879861475975495	-0.43082067647872924	-0.244567137589874	1.884963444714562	-0.38291757480907535	-0.2595590554868672	1.7413389930435803	-0.3461424888986387													-0.21664188549380192	1.8906659585889307	-0.4734093856578115	-0.21109536461912629	1.7465255722351938	-0.48358935121301294	-0.21003881797470597	1.6222528421388722	-0.44974036078458823	-0.19773887163245107	1.5896373791702445	-0.5218095973441409	-0.19340594872535147	1.6005372037067545	-0.5277616523955558	-0.21744821550718163	1.6270908390663936	-0.42046463454583927	-0.2289239551942001	2.03396792193617	-0.40330893302245197	-0.23876135668220086	2.097625017276502	-0.45083201210552243	-0.24559907374328133	2.0412571938627564	-0.34677915572983137	-0.2743906140371942	2.0709879772748017	-0.42459364072732003	-0.29837489602766276	2.1174997212312068	-0.506286864480978	-0.21091600769045346	2.031236511006667	-0.46157587087525287	-1.7035348123647154	1.8883011719192766	1.1246319969354193	-0.1920613377156098	1.9413557156140226	-0.6342924983167872
53	1.7666666666666666	-0.23351742957845578	1.8834577653792246	-0.4136336649180233	-0.2460777213619191	1.8797465008936007	-0.3621104058865745	-0.2595590554868672	1.7413389930435803	-0.3461424888986387													-0.2169514295849813	1.886708882200408	-0.46401653566906625	-0.21311918846836458	1.7472228594559671	-0.4813131066633894	-0.21003881797470597	1.6222528421388722	-0.44974036078458823	-0.1999017692833905	1.5897514142649922	-0.5194728115759903	-0.1957499165916566	1.6017287267020048	-0.5254866781092139	-0.21744821550718163	1.6270908390663936	-0.42046463454583927	-0.23175094867328588	2.0323998049124516	-0.3957490444333017	-0.23960008228749924	2.096206803238065	-0.43739344088484644	-0.25014830682706496	2.0391168738498795	-0.3371326202918759	-0.2831331642094062	2.067143938303042	-0.41115682711483986	-0.29933348599037757	2.1148599876751626	-0.4931741508932016	-0.21292256522682373	2.031802503687449	-0.4512219116614889	-1.7198357839560545	1.8873977142319966	1.1500479289312568	-0.1918451691204381	1.9296959307277477	-0.6205666486548953
54	1.8	-0.236338818285418	1.8818773945622878	-0.4056719638557693	-0.24880405565013822	1.878950270676332	-0.3544264482603613	-0.2595590554868672	1.7413389930435803	-0.3461424888986387													-0.22087511179419497	1.8861335844239142	-0.459460769753932	-0.21634183661179696	1.748533730470702	-0.47351459470443413	-0.21003881797470597	1.6222528421388722	-0.44974036078458823	-0.2020092423200437	1.5901366326913913	-0.5173686976373483	-0.19782364065359231	1.6020424625391085	-0.5233796428484173	-0.21744821550718163	1.6270908390663936	-0.42046463454583927	-0.23441734378147364	2.033233362245789	-0.388044836555519	-0.2441411931054582	2.0999337978203076	-0.42901922001533505	-0.2476874715660045	2.038355170798597	-0.32206220241507094	-0.2827378896612931	2.0634327309005234	-0.3936362592578409	-0.3041421308878746	2.112040386428946	-0.4758153400524294	-0.21667122544125977	2.030573685017846	-0.44635670846130315	-0.2069149437632986	1.9704631875676941	-0.5126302907179704	-0.19607412262400128	1.9152440804553623	-0.593729998170359
55	1.8333333333333333	-0.2396833664185123	1.8763549823840313	-0.4000727426333355	-0.2522459221884133	1.8709857222673703	-0.3485043296991331	-0.2595590554868672	1.7413389930435803	-0.3461424888986387													-0.22446928541814357	1.877593118575011	-0.4534718802022756	-0.21624415755057141	1.7479046827407747	-0.4557139702656445	-0.21003881797470597	1.6222528421388722	-0.44974036078458823	-0.19999052501789583	1.590264663168705	-0.5194887278508303	-0.19587735585767097	1.602657255259442	-0.5252601150992088	-0.21744821550718163	1.6270908390663936	-0.42046463454583927	-0.23528734068024015	2.0306990022790705	-0.3822072392534741	-0.24780770892536677	2.1023710026490368	-0.42502237835282125	-0.2455883351789695	2.038094240809795	-0.3156595975984473	-0.2814506702921432	2.064252270754755	-0.3825624611569641	-0.30505882078593843	2.1117012036669744	-0.47056174998148376	-0.21859940527452434	2.0303762092539803	-0.44412836628874486	-0.20594158072633875	1.964033092104769	-0.49893045834697053	-0.1977949607550168	1.9104195834953006	-0.5699670633863625
56	1.8666666666666667	-0.23893790566874823	1.8818394848987339	-0.3975764474905733	-0.2531535196785947	1.880021048939099	-0.3443903318433009	-0.2595590554868672	1.7413389930435803	-0.3461424888986387													-0.22752648322955224	1.8853198292725153	-0.4470823691744445	-0.21686811290606553	1.75320571794335	-0.4510742617827277	-0.21003881797470597	1.6222528421388722	-0.44974036078458823	-0.20175029352514237	1.5891337853812726	-0.5170939816033822	-0.19716795649233693	1.603832254971199	-0.5195494449843109	-0.21744821550718163	1.6270908390663936	-0.42046463454583927	-0.2332991748101962	2.033937902736481	-0.3768535363040132	-0.24685188229051488	2.1044501223701446	-0.42235862999834767	-0.2473611711204655	2.0381601637957805	-0.31356906840481874	-0.2834952311794408	2.0625379050879658	-0.38064306281098126	-0.3061300968874228	2.107808183631265	-0.46503679599582376	-0.21764754407299533	2.032743541765189	-0.4412984514624339	-0.20801613058053672	1.9635289666494093	-0.48799063740736565	-0.19715650881246632	1.9057038359342178	-0.5573050524254365
57	1.9	-0.24000134474553272	1.881983936553247	-0.3836073013629913	-0.2521526095765292	1.879057618943084	-0.3321466512784332	-0.2595590554868672	1.7413389930435803	-0.3461424888986387													-0.22802544086852414	1.8837903245842935	-0.43804677874899645	-0.21800463617168692	1.7488049962578307	-0.44477188315819494	-0.21003881797470597	1.6222528421388722	-0.44974036078458823	-0.20043396681085454	1.5898251767301115	-0.5144165823487784	-0.19703612158191666	1.6062818808240182	-0.519740349747057	-0.21744821550718163	1.6270908390663936	-0.42046463454583927	-0.2339655094470279	2.0362942905174592	-0.3719554210166641	-0.2476217540215891	2.1042059234740824	-0.41718043469528426	-0.24892259850545412	2.0399456017189603	-0.31114944818681856	-0.284096853964522	2.0661494342777837	-0.38351809305344714	-0.3068966589064638	2.108312708416629	-0.4599470335543357	-0.21768253938674162	2.032772844578387	-0.44126672979134635	-0.21104575427784858	1.9628899674727467	-0.48038487805831936	-0.19915192123898956	1.903965884190091	-0.5546171632626812
